<svg width="48" height="48" viewBox="0 0 48 48" fill="none" xmlns="http://www.w3.org/2000/svg">
<path fill-rule="evenodd" clip-rule="evenodd" d="M23.9915 0.725098C18.294 0.728054 12.7832 2.74601 8.44471 6.41814C4.10618 10.0903 1.22277 15.1771 0.310056 20.7691C-0.602662 26.3611 0.51482 32.0935 3.46271 36.9415C6.4106 41.7894 10.9966 45.4366 16.4008 47.231C17.5931 47.4523 18.0422 46.7134 18.0422 46.0851C18.0422 45.4568 18.0183 43.6351 18.0104 41.6435C11.3338 43.0859 9.92294 38.8261 9.92294 38.8261C8.83402 36.06 7.26024 35.3329 7.26024 35.3329C5.0824 33.855 7.42319 33.8827 7.42319 33.8827C9.83552 34.0526 11.1033 36.3445 11.1033 36.3445C13.2414 39.9918 16.7188 38.9367 18.0859 38.3203C18.3005 36.7752 18.9244 35.7241 19.612 35.1274C14.2786 34.5268 8.67504 32.4799 8.67504 23.3359C8.64199 20.9645 9.52701 18.6712 11.147 16.9305C10.9006 16.3298 10.0779 13.9036 11.3815 10.608C11.3815 10.608 13.3964 9.96781 17.9826 13.054C21.9163 11.9843 26.0667 11.9843 30.0004 13.054C34.5827 9.96781 36.5936 10.608 36.5936 10.608C37.9011 13.8957 37.0784 16.3219 36.832 16.9305C38.4571 18.6715 39.344 20.9688 39.3079 23.3438C39.3079 32.5075 33.6924 34.5268 28.3512 35.1156C29.2096 35.8584 29.9766 37.3087 29.9766 39.5373C29.9766 42.7302 29.9488 45.2987 29.9488 46.0851C29.9488 46.7213 30.3819 47.4642 31.598 47.231C37.0029 45.4364 41.5894 41.7885 44.5372 36.9398C47.485 32.091 48.6019 26.3577 47.6882 20.7652C46.7744 15.1727 43.8896 10.0858 39.5496 6.41431C35.2097 2.74281 29.6977 0.72618 23.9994 0.725098H23.9915Z" fill="#191717"/>
</svg>
